#!OML:ASF H:\Terrain\Patient Classification 1\Walking\liu\liu.ASF
:FULLY-SPECIFIED
:DEGREES
211
root 8.330320 16.505699 -7.870840 8.021440 0.099215 -5.769980
lowerback -3.568940 1.190725 1.615700
upperback -0.440946 1.398605 1.881390
thorax 1.527180 0.705930 1.175300
lowerneck -8.004700 -3.240515 -7.272700
upperneck 7.420500 -4.111275 7.497750
head 4.256765 -1.686220 3.246630
rclavicle -0.000000 -0.000000
rhumerus -18.451200 6.159100 -41.245251
rradius 26.568800
rwrist -13.603500
rhand -16.280899 -14.368350
rfingers 3.562510
rthumb -2.895570 -29.318800
lclavicle -0.000000 -0.000000
lhumerus -25.391701 -5.510750 48.611900
lradius 13.392150
lwrist 4.935935
lhand -6.331300 -12.439800
lfingers 3.562510
lthumb 6.709200 2.334095
rfemur 5.101350 2.764375 15.706450
rtibia 0.000000
rfoot -6.181400 2.740285
rtoes -3.971890
lfemur -21.982201 -1.510605 -5.222900
ltibia 10.338200
lfoot -8.527200 7.750250
ltoes -7.513550
212
root 8.346940 16.486000 -7.723630 8.180980 -0.215262 -5.945030
lowerback -3.641100 1.211730 1.689125
upperback -0.476945 1.418055 1.878115
thorax 1.533585 0.716230 1.135280
lowerneck -7.899400 -3.212750 -7.262700
upperneck 7.391850 -4.086285 7.499550
head 4.223705 -1.678240 3.249525
rclavicle -0.000000 0.000000
rhumerus -18.555750 6.337650 -41.463451
rradius 26.580950
rwrist -13.620050
rhand -16.227400 -14.440750
rfingers 3.562510
rthumb -2.843920 -29.392599
lclavicle -0.000000 0.000000
lhumerus -25.451300 -4.963280 48.187901
lradius 13.347400
lwrist 4.016195
lhand -6.316000 -12.360750
lfingers 3.562510
lthumb 6.723950 2.412215
rfemur 5.283350 2.843030 15.765300
rtibia 0.000000
rfoot -6.336250 2.814435
rtoes -3.916475
lfemur -22.202000 -1.622560 -4.901090
ltibia 10.178250
lfoot -8.729250 7.792400
ltoes -7.897550
213
root 8.367740 16.468201 -7.573060 8.341820 -0.482203 -6.249640
lowerback -3.685795 1.237825 1.813275
upperback -0.522460 1.441060 1.912895
thorax 1.515365 0.728525 1.105235
lowerneck -7.927750 -3.199220 -7.232650
upperneck 7.481450 -4.069525 7.443800
head 4.251640 -1.671915 3.228755
rclavicle 0.000000 0.000000
rhumerus -18.596001 6.383050 -41.643002
rradius 26.518700
rwrist -13.496750
rhand -16.180201 -14.845050
rfingers 3.562510
rthumb -2.798360 -29.798100
lclavicle 0.000000 0.000000
lhumerus -25.490299 -4.738260 48.019348
lradius 13.242150
lwrist 3.682605
lhand -7.428600 -14.803450
lfingers 3.562510
lthumb 5.651250 0.034294
rfemur 5.484900 2.909750 15.876850
rtibia 0.000000
rfoot -6.331100 2.933715
rtoes -3.984400
lfemur -22.371050 -1.439435 -4.745305
ltibia 10.042900
lfoot -8.767300 7.537150
ltoes -7.600500
214
root 8.387540 16.452299 -7.427210 8.501790 -0.699848 -6.352830
lowerback -3.736205 1.261155 1.838065
upperback -0.544690 1.467510 1.925020
thorax 1.520760 0.741770 1.108530
lowerneck -7.963350 -3.183465 -7.230650
upperneck 7.514050 -4.041805 7.419600
head 4.263050 -1.659320 3.224145
rclavicle 0.000000 0.000000
rhumerus -18.681400 6.411650 -41.778500
rradius 26.536949
rwrist -13.363050
rhand -16.146950 -15.243400
rfingers 3.562510
rthumb -2.766230 -30.197300
lclavicle 0.000000 0.000000
lhumerus -25.554750 -4.802350 48.075901
lradius 13.147250
lwrist 3.613420
lhand -9.776600 -21.228050
lfingers 3.562510
lthumb 3.385565 -6.292200
rfemur 5.676200 2.939935 15.881200
rtibia 0.000000
rfoot -6.214750 3.044160
rtoes -4.215965
lfemur -22.569750 -1.380080 -4.682070
ltibia 10.040400
lfoot -8.681050 7.605300
ltoes -6.358250
215
root 8.398930 16.436501 -7.294990 8.617950 -0.999229 -6.435530
lowerback -3.700905 1.303340 1.827455
upperback -0.573570 1.528580 1.917345
thorax 1.470355 0.771730 1.109725
lowerneck -7.802250 -3.176240 -7.169400
upperneck 7.403450 -4.047965 7.379250
head 4.193575 -1.669295 3.196865
rclavicle -0.000000 -0.000000
rhumerus -18.909901 6.483800 -41.910252
rradius 26.708099
rwrist -13.385350
rhand -16.100451 -15.328400
rfingers 3.562510
rthumb -2.721355 -30.283449
lclavicle -0.000000 -0.000000
lhumerus -25.592051 -4.813375 48.044552
lradius 12.998850
lwrist 3.330670
lhand -9.947050 -22.014250
lfingers 3.562510
lthumb 3.221040 -7.073250
rfemur 5.860550 3.000925 15.895300
rtibia 0.000000
rfoot -6.196200 3.123440
rtoes -4.539480
lfemur -22.751801 -1.313890 -4.597525
ltibia 10.094800
lfoot -8.532850 7.939950
ltoes -6.132500
216
root 8.424550 16.425800 -7.121940 8.632780 -1.388750 -6.492920
lowerback -3.857930 1.369360 1.859950
upperback -0.510380 1.600095 1.909995
thorax 1.625040 0.808435 1.102485
lowerneck -7.669200 -3.173155 -7.191300
upperneck 7.221800 -4.047470 7.435400
head 4.113290 -1.671845 3.217625
rclavicle 0.000000 0.000000
rhumerus -19.077700 6.554700 -41.998348
rradius 26.866850
rwrist -13.423050
rhand -15.963050 -14.866450
rfingers 3.562510
rthumb -2.588665 -29.824850
lclavicle 0.000000 0.000000
lhumerus -25.511999 -4.875820 48.072250
lradius 12.764200
lwrist 3.161525
lhand -9.496250 -20.873350
lfingers 3.562510
lthumb 3.656210 -5.946550
rfemur 6.199950 3.099120 15.853600
rtibia -0.000000
rfoot -6.327000 3.208945
rtoes -4.998680
lfemur -22.734650 -1.144480 -4.662040
ltibia 10.155050
lfoot -8.479850 8.145350
ltoes -8.773150
217
root 8.447320 16.405300 -6.957800 8.667180 -1.570040 -6.567320
lowerback -4.018045 1.386270 1.899405
upperback -0.441415 1.604790 1.905785
thorax 1.788530 0.812105 1.088540
lowerneck -7.587450 -3.133035 -7.324550
upperneck 7.057250 -3.990750 7.630050
head 4.050575 -1.640235 3.315120
rclavicle 0.000000 0.000000
rhumerus -19.149750 6.658250 -42.138649
rradius 26.909651
rwrist -13.430750
rhand -15.769200 -14.256750
rfingers 3.562510
rthumb -2.401490 -29.219549
lclavicle 0.000000 0.000000
lhumerus -25.410299 -4.848185 47.992249
lradius 12.593800
lwrist 2.875730
lhand -8.422000 -18.489000
lfingers 3.562510
lthumb 4.692920 -3.603510
rfemur 6.501300 3.099255 15.839000
rtibia -0.000000
rfoot -6.402300 3.282100
rtoes -5.618900
lfemur -22.750450 -0.882920 -4.813330
ltibia 10.215100
lfoot -8.251250 7.988100
ltoes -10.905250
218
root 8.468020 16.380199 -6.799390 8.763900 -1.774850 -6.668120
lowerback -4.063345 1.372650 1.906150
upperback -0.475797 1.583975 1.925355
thorax 1.777455 0.801475 1.104000
lowerneck -7.583650 -3.090750 -7.357800
upperneck 7.152550 -3.934960 7.630600
head 4.073180 -1.615350 3.331455
rclavicle -0.000000 -0.000000
rhumerus -19.266649 6.826900 -42.331051
rradius 26.791149
rwrist -13.360650
rhand -15.782600 -14.395800
rfingers 3.562510
rthumb -2.414470 -29.358299
lclavicle -0.000000 -0.000000
lhumerus -25.527451 -4.697775 47.934448
lradius 12.528200
lwrist 2.635300
lhand -7.094800 -15.672250
lfingers 3.562510
lthumb 5.973150 -0.852705
rfemur 6.744250 3.119850 15.828100
rtibia 0.000000
rfoot -6.321250 3.404200
rtoes -5.254100
lfemur -22.789650 -0.545555 -4.957675
ltibia 10.329100
lfoot -8.041850 7.608700
ltoes -9.489850
219
root 8.488750 16.351000 -6.637640 8.803750 -2.072120 -6.793150
lowerback -4.019630 1.348660 1.874255
upperback -0.526725 1.559050 1.964675
thorax 1.696375 0.787940 1.155370
lowerneck -7.674550 -3.051130 -7.184750
upperneck 7.360050 -3.881645 7.379850
head 4.129725 -1.597170 3.223375
rclavicle 0.000000 0.000000
rhumerus -19.344351 6.986650 -42.538300
rradius 26.600000
rwrist -13.227250
rhand -16.090599 -15.265800
rfingers 3.562510
rthumb -2.711855 -30.221100
lclavicle 0.000000 0.000000
lhumerus -25.665850 -4.581080 47.929699
lradius 12.447400
lwrist 2.482015
lhand -5.989200 -13.313200
lfingers 3.562510
lthumb 7.038900 1.438405
rfemur 7.024350 3.180415 15.833550
rtibia 0.000000
rfoot -6.227550 3.496175
rtoes -4.448925
lfemur -22.794399 -0.157487 -5.094950
ltibia 10.458500
lfoot -7.755650 7.294400
ltoes -6.668650
220
root 8.511160 16.322201 -6.475190 8.822190 -2.452250 -6.954490
lowerback -4.013150 1.375720 1.905645
upperback -0.500730 1.590915 1.971365
thorax 1.720805 0.804255 1.149070
lowerneck -7.858200 -3.049080 -6.977400
upperneck 7.467550 -3.880315 7.199600
head 4.181105 -1.592545 3.124115
rclavicle -0.000000 -0.000000
rhumerus -19.411650 7.029000 -42.689751
rradius 26.521601
rwrist -13.161450
rhand -16.328550 -15.862350
rfingers 3.562510
rthumb -2.941595 -30.811501
lclavicle -0.000000 -0.000000
lhumerus -25.614050 -4.473685 47.745499
lradius 12.374700
lwrist 2.124105
lhand -5.434050 -12.289650
lfingers 3.562510
lthumb 7.573750 2.423150
rfemur 7.335650 3.280910 15.858350
rtibia -0.000000
rfoot -6.318050 3.567900
rtoes -4.621735
lfemur -22.803551 0.304309 -5.256650
ltibia 10.657450
lfoot -7.420850 7.018550
ltoes -5.227600
221
root 8.532110 16.283300 -6.319070 9.052360 -2.659790 -7.203030
lowerback -4.071100 1.421830 1.997320
upperback -0.530540 1.641020 1.986840
thorax 1.725875 0.829980 1.122010
lowerneck -7.861950 -3.061560 -7.050750
upperneck 7.420950 -3.903590 7.344150
head 4.180040 -1.595160 3.184230
rclavicle 0.000000 0.000000
rhumerus -19.608101 6.949450 -42.738049
rradius 26.515100
rwrist -13.062900
rhand -16.279249 -15.795950
rfingers 3.562510
rthumb -2.893980 -30.746450
lclavicle 0.000000 0.000000
lhumerus -25.338751 -3.728385 46.775002
lradius 12.090450
lwrist -0.601305
lhand -4.658215 -13.099250
lfingers 3.562510
lthumb 8.320900 1.554045
rfemur 7.538700 3.325760 15.927450
rtibia -0.000000
rfoot -6.427400 3.631405
rtoes -5.184800
lfemur -22.996050 0.696800 -5.342100
ltibia 11.006400
lfoot -7.465550 6.685450
ltoes -4.541735
222
root 8.551090 16.261400 -6.157530 9.233850 -2.804460 -7.292980
lowerback -4.115340 1.410575 1.974390
upperback -0.604570 1.628465 2.002335
thorax 1.671385 0.822760 1.149025
lowerneck -7.742250 -3.027850 -7.144600
upperneck 7.427550 -3.877220 7.479550
head 4.166600 -1.581115 3.254375
rclavicle 0.000000 0.000000
rhumerus -19.850651 6.932550 -42.828098
rradius 26.473000
rwrist -12.921850
rhand -16.115351 -15.623150
rfingers 3.562510
rthumb -2.735740 -30.577850
lclavicle 0.000000 0.000000
lhumerus -25.475349 -3.802460 46.824249
lradius 11.955250
lwrist -0.543155
lhand -4.773160 -13.388350
lfingers 3.562510
lthumb 8.210250 1.274165
rfemur 7.744650 3.326160 15.912100
rtibia -0.000000
rfoot -6.292050 3.653320
rtoes -5.707650
lfemur -23.122700 0.915090 -5.433850
ltibia 11.430700
lfoot -7.633100 6.499200
ltoes -4.097150
223
root 8.576210 16.235399 -5.978670 9.269330 -3.225760 -7.356720
lowerback -4.156650 1.416950 1.944950
upperback -0.593705 1.635750 2.006800
thorax 1.703750 0.826120 1.173705
lowerneck -7.844200 -3.005885 -7.026700
upperneck 7.542000 -3.858465 7.400450
head 4.211250 -1.567630 3.210375
rclavicle -0.000000 -0.000000
rhumerus -19.883400 6.947950 -42.952049
rradius 26.285450
rwrist -12.764350
rhand -15.941050 -15.547700
rfingers 3.562510
rthumb -2.567425 -30.506599
lclavicle -0.000000 -0.000000
lhumerus -25.543949 -3.926305 46.919750
lradius 11.831050
lwrist -0.272204
lhand -4.772000 -13.294100
lfingers 3.562510
lthumb 8.211350 1.368325
rfemur 8.071300 3.446635 15.855650
rtibia 0.000000
rfoot -6.086000 3.687585
rtoes -6.013500
lfemur -23.108049 1.237440 -5.571500
ltibia 11.917350
lfoot -7.446500 6.448350
ltoes -5.529800
224
root 8.606700 16.204599 -5.797080 9.432990 -3.604390 -7.632660
lowerback -4.316935 1.468275 2.087865
upperback -0.523385 1.674940 2.007755
thorax 1.874160 0.848205 1.112405
lowerneck -8.068250 -3.023220 -6.896200
upperneck 7.619650 -3.874360 7.299700
head 4.270090 -1.567035 3.149315
rclavicle -0.000000 -0.000000
rhumerus -19.796900 6.879450 -43.035500
rradius 26.093849
rwrist -12.609050
rhand -15.755650 -15.635450
rfingers 3.562510
rthumb -2.388420 -30.598551
lclavicle -0.000000 -0.000000
lhumerus -25.427200 -3.828345 46.794498
lradius 11.733250
lwrist -0.202861
lhand -4.563405 -12.993700
lfingers 3.562510
lthumb 8.412200 1.651850
rfemur 8.345450 3.577235 15.890600
rtibia -0.000000
rfoot -5.925950 3.755280
rtoes -5.339550
lfemur -23.184950 1.682165 -5.668900
ltibia 12.422700
lfoot -6.857950 6.304350
ltoes -7.929750
